<svg width="220" height="147" viewBox="0 0 220 147" fill="none" xmlns="http://www.w3.org/2000/svg">
<path d="M147.474 119.133C102.475 117.535 63.5186 91.8273 43.1875 54.5621C42.6274 53.5355 41.5608 52.8873 40.3905 52.8873H40.3847C37.9563 52.8873 36.4358 55.4859 37.5985 57.6167C58.9737 96.7805 99.9168 123.802 147.212 125.492C149.022 125.557 150.53 124.117 150.53 122.307C150.529 120.602 149.181 119.194 147.474 119.133Z" fill="url(#paint0_linear_175_1021)"/>
<path d="M185 129.756C184.77 128.177 183.234 127.119 181.682 127.494C171.615 129.928 161.109 131.225 150.304 131.225C87.4098 131.225 34.5432 87.5314 20.4882 28.9289C20.1923 27.6961 19.1031 26.819 17.8342 26.819C16.0637 26.819 14.763 28.4762 15.176 30.1961C29.8036 91.1982 84.8352 136.682 150.304 136.682C161.549 136.682 172.484 135.337 182.961 132.804C184.326 132.474 185.204 131.145 185.001 129.758L185 129.756Z" fill="url(#paint1_linear_175_1021)"/>
<path d="M219.987 130.729C219.987 129.496 218.702 128.698 217.587 129.227C198.107 138.469 176.343 143.659 153.382 143.659C73.2787 143.659 7.62266 80.7047 3.34027 1.71139C3.29179 0.825154 2.56705 0.12854 1.67848 0.12854C0.720519 0.12854 -0.0493548 0.93291 0.00247187 1.88847C4.37681 82.6417 71.4948 147 153.382 147C176.858 147 199.114 141.698 219.032 132.247C219.616 131.97 219.987 131.378 219.987 130.732V130.729H219.987Z" fill="url(#paint2_linear_175_1021)"/>
<defs>
<linearGradient id="paint0_linear_175_1021" x1="-21.0531" y1="14.72" x2="214.072" y2="183.316" gradientUnits="userSpaceOnUse">
<stop stop-color="#F5A822"/>
<stop offset="0.732" stop-color="#EF8422"/>
<stop offset="0.8202" stop-color="#E67B24"/>
<stop offset="0.9712" stop-color="#D26328"/>
<stop offset="1" stop-color="#CE5E28"/>
</linearGradient>
<linearGradient id="paint1_linear_175_1021" x1="-22.8711" y1="12.2445" x2="216.674" y2="184.01" gradientUnits="userSpaceOnUse">
<stop stop-color="#F5A822"/>
<stop offset="0.732" stop-color="#EF8422"/>
<stop offset="0.8202" stop-color="#E67B24"/>
<stop offset="0.9712" stop-color="#D26328"/>
<stop offset="1" stop-color="#CE5E28"/>
</linearGradient>
<linearGradient id="paint2_linear_175_1021" x1="-36.4742" y1="-3.70373" x2="212.047" y2="174.498" gradientUnits="userSpaceOnUse">
<stop stop-color="#F5A822"/>
<stop offset="0.732" stop-color="#EF8422"/>
<stop offset="0.8202" stop-color="#E67B24"/>
<stop offset="0.9712" stop-color="#D26328"/>
<stop offset="1" stop-color="#CE5E28"/>
</linearGradient>
</defs>
</svg>
