<svg width="218" height="199" viewBox="0 0 218 199" fill="none" xmlns="http://www.w3.org/2000/svg">
<path d="M72.2987 24.8916C72.2987 26.5513 73.5751 27.9429 75.2319 28.0607C136.506 32.3916 185.591 81.4894 189.855 142.736C189.97 144.393 191.364 145.671 193.026 145.671H193.029C194.882 145.671 196.337 144.096 196.209 142.248C191.707 77.881 140.124 26.2866 75.7285 21.7151C73.8778 21.5839 72.2987 23.039 72.2987 24.8916Z" fill="url(#paint0_linear_175_1020)"/>
<path d="M203.151 168.638C204.524 168.638 205.696 167.623 205.862 166.261C206.53 160.791 206.881 155.225 206.881 149.576C206.881 73.0188 144.55 10.7354 67.9352 10.7354C58.2244 10.7354 48.7502 11.7552 39.5978 13.6638C38.2202 13.9512 37.3007 15.2567 37.467 16.6533C37.6551 18.237 39.1581 19.3287 40.7204 19.003C49.51 17.1704 58.6089 16.1922 67.9352 16.1922C141.539 16.1922 201.42 76.0284 201.42 149.576C201.42 155.001 201.082 160.347 200.44 165.6C200.243 167.218 201.519 168.638 203.151 168.638Z" fill="url(#paint1_linear_175_1020)"/>
<path d="M66.9088 0.0204616C43.5299 -0.35792 21.313 4.52514 1.34971 13.5411C0.551413 13.902 0.17275 14.825 0.478695 15.6452C0.818076 16.5557 1.85962 16.9758 2.74234 16.5682C21.1467 8.06588 40.6235 3.63055 62.0764 3.35407C144.125 2.29828 212.32 67.1494 214.594 149.111C215.054 165.682 213.004 181.054 208.523 195.978C208.235 196.939 208.844 197.936 209.835 198.102C210.667 198.242 211.478 197.743 211.718 196.934C216.064 182.257 218.279 166.676 217.972 150.539C216.399 68.1969 149.317 1.35357 66.9088 0.0204616Z" fill="url(#paint2_linear_175_1020)"/>
<defs>
<linearGradient id="paint0_linear_175_1020" x1="260.006" y1="158.995" x2="7.73571" y2="-13.1804" gradientUnits="userSpaceOnUse">
<stop stop-color="#F5A822"/>
<stop offset="0.732" stop-color="#EF8422"/>
<stop offset="0.8202" stop-color="#E67B24"/>
<stop offset="0.9712" stop-color="#D26328"/>
<stop offset="1" stop-color="#CE5E28"/>
</linearGradient>
<linearGradient id="paint1_linear_175_1020" x1="260.589" y1="160.609" x2="6.20543" y2="-13.0084" gradientUnits="userSpaceOnUse">
<stop stop-color="#F5A822"/>
<stop offset="0.732" stop-color="#EF8422"/>
<stop offset="0.8202" stop-color="#E67B24"/>
<stop offset="0.9712" stop-color="#D26328"/>
<stop offset="1" stop-color="#CE5E28"/>
</linearGradient>
<linearGradient id="paint2_linear_175_1020" x1="270.501" y1="162.842" x2="-76.8206" y2="-32.7561" gradientUnits="userSpaceOnUse">
<stop stop-color="#F5A822"/>
<stop offset="0.732" stop-color="#EF8422"/>
<stop offset="0.8202" stop-color="#E67B24"/>
<stop offset="0.9712" stop-color="#D26328"/>
<stop offset="1" stop-color="#CE5E28"/>
</linearGradient>
</defs>
</svg>
