<svg width="19" height="19" viewBox="0 0 19 19" fill="none" xmlns="http://www.w3.org/2000/svg">
<path d="M18.6724 15.7242H0.327601C0.146693 15.7242 0 15.5775 0 15.3966V3.60348C0 3.42257 0.146693 3.27588 0.327601 3.27588H18.6724C18.8533 3.27588 19 3.42257 19 3.60348V15.3966C19 15.5775 18.8533 15.7242 18.6724 15.7242Z" fill="#F5F5F5"/>
<path d="M19 4.23348H0V3.60348C0 3.42257 0.146693 3.27588 0.327601 3.27588H18.6724C18.8533 3.27588 19 3.42257 19 3.60348L19 4.23348Z" fill="#FF4B55"/>
<path d="M19 7.10608H0V8.06365H19V7.10608Z" fill="#FF4B55"/>
<path d="M19 5.19092H0V6.14849H19V5.19092Z" fill="#FF4B55"/>
<path d="M19 9.97885H0.327601C0.146693 9.97885 0 9.83215 0 9.65125V9.02124H19V9.97885Z" fill="#FF4B55"/>
<path d="M19 12.8518H0V13.8094H19V12.8518Z" fill="#FF4B55"/>
<path d="M18.6724 15.7242H0.327601C0.146693 15.7242 0 15.5775 0 15.3966V14.7666H19V15.3966C19 15.5775 18.8533 15.7242 18.6724 15.7242Z" fill="#FF4B55"/>
<path d="M19 10.9365H0V11.8941H19V10.9365Z" fill="#FF4B55"/>
<path d="M8.51722 3.27588H0.327601C0.146693 3.27588 0 3.42253 0 3.60344V9.65115C0 9.83205 0.146693 9.97875 0.327601 9.97875H8.51725C8.69816 9.97875 8.84485 9.83205 8.84485 9.65115V3.60344C8.84482 3.42253 8.69812 3.27588 8.51722 3.27588Z" fill="#41479B"/>
<path d="M0.919897 4.02783L0.992409 4.24529L1.22163 4.24704C1.25132 4.2473 1.2636 4.28515 1.23974 4.30278L1.05535 4.43897L1.12452 4.6575C1.1335 4.68578 1.10125 4.70923 1.07709 4.69194L0.890618 4.55868L0.704144 4.69198C0.679985 4.70923 0.647812 4.68582 0.656718 4.65754L0.72589 4.439L0.541494 4.30281C0.517632 4.28515 0.529915 4.24734 0.559603 4.24708L0.788827 4.24533L0.861339 4.02787C0.87069 3.99967 0.910471 3.99967 0.919897 4.02783Z" fill="#F5F5F5"/>
<path d="M0.919897 5.16526L0.992409 5.38272L1.22163 5.38446C1.25132 5.38472 1.2636 5.42257 1.23974 5.4402L1.05535 5.57639L1.12452 5.79493C1.1335 5.82321 1.10125 5.84666 1.07709 5.82937L0.890618 5.69611L0.704144 5.8294C0.679985 5.84666 0.647812 5.82324 0.656718 5.79496L0.72589 5.57643L0.541494 5.44024C0.517632 5.42257 0.529915 5.38476 0.559603 5.3845L0.788827 5.38275L0.861339 5.16529C0.87069 5.13713 0.910471 5.13713 0.919897 5.16526Z" fill="#F5F5F5"/>
<path d="M0.919897 6.30283L0.992409 6.52029L1.22163 6.52204C1.25132 6.5223 1.2636 6.56015 1.23974 6.57777L1.05535 6.71396L1.12452 6.9325C1.1335 6.96078 1.10125 6.98423 1.07709 6.96694L0.890618 6.83368L0.704144 6.96698C0.679985 6.98423 0.647812 6.96082 0.656718 6.93254L0.72589 6.714L0.541494 6.57781C0.517632 6.56015 0.529915 6.52233 0.559603 6.52207L0.788827 6.52033L0.861339 6.30287C0.87069 6.2747 0.910471 6.2747 0.919897 6.30283Z" fill="#F5F5F5"/>
<path d="M0.919897 7.44043L0.992409 7.65789L1.22163 7.65964C1.25132 7.6599 1.2636 7.69775 1.23974 7.71537L1.05535 7.85157L1.12452 8.0701C1.1335 8.09838 1.10125 8.12183 1.07709 8.10454L0.890618 7.97128L0.704144 8.10458C0.679985 8.12183 0.647812 8.09842 0.656718 8.07014L0.72589 7.8516L0.541494 7.71541C0.517632 7.69775 0.529915 7.65993 0.559603 7.65967L0.788827 7.65793L0.861339 7.44047C0.87069 7.41227 0.910471 7.41227 0.919897 7.44043Z" fill="#F5F5F5"/>
<path d="M0.919897 8.57791L0.992409 8.79537L1.22163 8.79711C1.25132 8.79737 1.2636 8.83523 1.23974 8.85285L1.05535 8.98904L1.12452 9.20758C1.1335 9.23586 1.10125 9.25931 1.07709 9.24202L0.890618 9.10876L0.704144 9.24206C0.679985 9.25931 0.647812 9.2359 0.656718 9.20762L0.72589 8.98908L0.541494 8.85289C0.517632 8.83523 0.529915 8.79741 0.559603 8.79715L0.788827 8.79541L0.861339 8.57795C0.87069 8.54971 0.910471 8.54971 0.919897 8.57791Z" fill="#F5F5F5"/>
<path d="M1.80283 4.58543L1.87534 4.80289L2.10457 4.80463C2.13425 4.80489 2.14654 4.84274 2.12268 4.86037L1.93828 4.99656L2.00745 5.2151C2.01643 5.24338 1.98418 5.26683 1.96003 5.24954L1.77355 5.11624L1.58708 5.24954C1.56292 5.26679 1.53075 5.24338 1.53965 5.2151L1.60882 4.99656L1.42443 4.86037C1.40057 4.84271 1.41285 4.80489 1.44254 4.80463L1.67176 4.80289L1.74427 4.58543C1.75359 4.5573 1.79344 4.5573 1.80283 4.58543Z" fill="#F5F5F5"/>
<path d="M1.80283 5.72303L1.87534 5.94049L2.10457 5.94223C2.13425 5.94249 2.14654 5.98034 2.12268 5.99797L1.93828 6.13416L2.00745 6.3527C2.01643 6.38098 1.98418 6.40443 1.96003 6.38714L1.77355 6.25384L1.58708 6.38714C1.56292 6.40439 1.53075 6.38101 1.53965 6.3527L1.60882 6.13416L1.42443 5.99797C1.40057 5.98031 1.41285 5.94249 1.44254 5.94223L1.67176 5.94049L1.74427 5.72303C1.75359 5.69486 1.79344 5.69486 1.80283 5.72303Z" fill="#F5F5F5"/>
<path d="M1.80283 6.8606L1.87534 7.07806L2.10457 7.07981C2.13425 7.08007 2.14654 7.11792 2.12268 7.13554L1.93828 7.27174L2.00745 7.49027C2.01643 7.51855 1.98418 7.542 1.96003 7.52471L1.77355 7.39141L1.58708 7.52471C1.56292 7.54197 1.53075 7.51855 1.53965 7.49027L1.60882 7.27174L1.42443 7.13554C1.40057 7.11788 1.41285 7.08007 1.44254 7.07981L1.67176 7.07806L1.74427 6.8606C1.75359 6.83244 1.79344 6.83244 1.80283 6.8606Z" fill="#F5F5F5"/>
<path d="M1.80283 7.99815L1.87534 8.21561L2.10457 8.21735C2.13425 8.21761 2.14654 8.25546 2.12268 8.27309L1.93828 8.40928L2.00745 8.62782C2.01643 8.6561 1.98418 8.67955 1.96003 8.66226L1.77355 8.52896L1.58708 8.66226C1.56292 8.67951 1.53075 8.6561 1.53965 8.62782L1.60882 8.40928L1.42443 8.27309C1.40057 8.25543 1.41285 8.21761 1.44254 8.21735L1.67176 8.21561L1.74427 7.99815C1.75359 7.97002 1.79344 7.97002 1.80283 7.99815Z" fill="#F5F5F5"/>
<path d="M2.68577 4.02772L2.75828 4.24518L2.9875 4.24692C3.01719 4.24718 3.02947 4.28503 3.00561 4.30266L2.82122 4.43885L2.89039 4.65739C2.89937 4.68566 2.86712 4.70912 2.84296 4.69182L2.65649 4.55853L2.47001 4.69182C2.44585 4.70908 2.41368 4.68566 2.42259 4.65739L2.49176 4.43885L2.30736 4.30266C2.2835 4.28499 2.29578 4.24718 2.32547 4.24692L2.5547 4.24518L2.62721 4.02772C2.63656 3.99955 2.67638 3.99955 2.68577 4.02772Z" fill="#F5F5F5"/>
<path d="M2.68577 5.16526L2.75828 5.38272L2.9875 5.38447C3.01719 5.38473 3.02947 5.42258 3.00561 5.4402L2.82122 5.5764L2.89039 5.79493C2.89937 5.82321 2.86712 5.84666 2.84296 5.82937L2.65649 5.69607L2.47001 5.82937C2.44585 5.84663 2.41368 5.82321 2.42259 5.79493L2.49176 5.5764L2.30736 5.4402C2.2835 5.42254 2.29578 5.38473 2.32547 5.38447L2.5547 5.38272L2.62721 5.16526C2.63656 5.13713 2.67638 5.13713 2.68577 5.16526Z" fill="#F5F5F5"/>
<path d="M2.68577 6.30283L2.75828 6.5203L2.9875 6.52204C3.01719 6.5223 3.02947 6.56015 3.00561 6.57778L2.82122 6.71397L2.89039 6.93251C2.89937 6.96078 2.86712 6.98424 2.84296 6.96694L2.65649 6.83365L2.47001 6.96694C2.44585 6.9842 2.41368 6.96078 2.42259 6.93251L2.49176 6.71397L2.30736 6.57778C2.2835 6.56011 2.29578 6.5223 2.32547 6.52204L2.5547 6.5203L2.62721 6.30283C2.63656 6.27471 2.67638 6.27471 2.68577 6.30283Z" fill="#F5F5F5"/>
<path d="M2.68577 7.44044L2.75828 7.6579L2.9875 7.65964C3.01719 7.6599 3.02947 7.69775 3.00561 7.71538L2.82122 7.85157L2.89039 8.07011C2.89937 8.09838 2.86712 8.12184 2.84296 8.10454L2.65649 7.97125L2.47001 8.10454C2.44585 8.1218 2.41368 8.09838 2.42259 8.07011L2.49176 7.85157L2.30736 7.71538C2.2835 7.69771 2.29578 7.6599 2.32547 7.65964L2.5547 7.6579L2.62721 7.44044C2.63656 7.41227 2.67638 7.41227 2.68577 7.44044Z" fill="#F5F5F5"/>
<path d="M2.68577 8.57791L2.75828 8.79538L2.9875 8.79712C3.01719 8.79738 3.02947 8.83523 3.00561 8.85286L2.82122 8.98905L2.89039 9.20759C2.89937 9.23586 2.86712 9.25932 2.84296 9.24202L2.65649 9.10873L2.47001 9.24202C2.44585 9.25928 2.41368 9.23586 2.42259 9.20759L2.49176 8.98905L2.30736 8.85286C2.2835 8.83519 2.29578 8.79738 2.32547 8.79712L2.5547 8.79538L2.62721 8.57791C2.63656 8.54971 2.67638 8.54971 2.68577 8.57791Z" fill="#F5F5F5"/>
<path d="M3.56876 4.58543L3.64127 4.80289L3.8705 4.80463C3.90019 4.80489 3.91247 4.84274 3.88861 4.86037L3.70421 4.99656L3.77338 5.2151C3.78236 5.24338 3.75012 5.26683 3.72596 5.24954L3.53948 5.11624L3.35301 5.24954C3.32885 5.26679 3.29668 5.24338 3.30558 5.2151L3.37475 4.99656L3.19036 4.86037C3.1665 4.84271 3.17878 4.80489 3.20847 4.80463L3.43769 4.80289L3.5102 4.58543C3.51952 4.5573 3.55937 4.5573 3.56876 4.58543Z" fill="#F5F5F5"/>
<path d="M3.56876 5.72303L3.64127 5.94049L3.8705 5.94223C3.90019 5.94249 3.91247 5.98034 3.88861 5.99797L3.70421 6.13416L3.77338 6.3527C3.78236 6.38098 3.75012 6.40443 3.72596 6.38714L3.53948 6.25384L3.35301 6.38714C3.32885 6.40439 3.29668 6.38101 3.30558 6.3527L3.37475 6.13416L3.19036 5.99797C3.1665 5.98031 3.17878 5.94249 3.20847 5.94223L3.43769 5.94049L3.5102 5.72303C3.51952 5.69486 3.55937 5.69486 3.56876 5.72303Z" fill="#F5F5F5"/>
<path d="M3.56876 6.8606L3.64127 7.07806L3.8705 7.07981C3.90019 7.08007 3.91247 7.11792 3.88861 7.13554L3.70421 7.27174L3.77338 7.49027C3.78236 7.51855 3.75012 7.542 3.72596 7.52471L3.53948 7.39141L3.35301 7.52471C3.32885 7.54197 3.29668 7.51855 3.30558 7.49027L3.37475 7.27174L3.19036 7.13554C3.1665 7.11788 3.17878 7.08007 3.20847 7.07981L3.43769 7.07806L3.5102 6.8606C3.51952 6.83244 3.55937 6.83244 3.56876 6.8606Z" fill="#F5F5F5"/>
<path d="M3.56876 7.99815L3.64127 8.21561L3.8705 8.21735C3.90019 8.21761 3.91247 8.25546 3.88861 8.27309L3.70421 8.40928L3.77338 8.62782C3.78236 8.6561 3.75012 8.67955 3.72596 8.66226L3.53948 8.52896L3.35301 8.66226C3.32885 8.67951 3.29668 8.6561 3.30558 8.62782L3.37475 8.40928L3.19036 8.27309C3.1665 8.25543 3.17878 8.21761 3.20847 8.21735L3.43769 8.21561L3.5102 7.99815C3.51952 7.97002 3.55937 7.97002 3.56876 7.99815Z" fill="#F5F5F5"/>
<path d="M4.4517 4.02772L4.52421 4.24518L4.75344 4.24692C4.78313 4.24718 4.79541 4.28503 4.77155 4.30266L4.58715 4.43885L4.65632 4.65739C4.6653 4.68566 4.63306 4.70912 4.6089 4.69182L4.42239 4.55853L4.23591 4.69182C4.21175 4.70908 4.17958 4.68566 4.18849 4.65739L4.25766 4.43885L4.07326 4.30266C4.0494 4.28499 4.06168 4.24718 4.09137 4.24692L4.3206 4.24518L4.39311 4.02772C4.4025 3.99955 4.44231 3.99955 4.4517 4.02772Z" fill="#F5F5F5"/>
<path d="M4.4517 5.16526L4.52421 5.38272L4.75344 5.38447C4.78313 5.38473 4.79541 5.42258 4.77155 5.4402L4.58715 5.5764L4.65632 5.79493C4.6653 5.82321 4.63306 5.84666 4.6089 5.82937L4.42239 5.69607L4.23591 5.82937C4.21175 5.84663 4.17958 5.82321 4.18849 5.79493L4.25766 5.5764L4.07326 5.4402C4.0494 5.42254 4.06168 5.38473 4.09137 5.38447L4.3206 5.38272L4.39311 5.16526C4.4025 5.13713 4.44231 5.13713 4.4517 5.16526Z" fill="#F5F5F5"/>
<path d="M4.4517 6.30283L4.52421 6.5203L4.75344 6.52204C4.78313 6.5223 4.79541 6.56015 4.77155 6.57778L4.58715 6.71397L4.65632 6.93251C4.6653 6.96078 4.63306 6.98424 4.6089 6.96694L4.42239 6.83365L4.23591 6.96694C4.21175 6.9842 4.17958 6.96078 4.18849 6.93251L4.25766 6.71397L4.07326 6.57778C4.0494 6.56011 4.06168 6.5223 4.09137 6.52204L4.3206 6.5203L4.39311 6.30283C4.4025 6.27471 4.44231 6.27471 4.4517 6.30283Z" fill="#F5F5F5"/>
<path d="M4.4517 7.44044L4.52421 7.6579L4.75344 7.65964C4.78313 7.6599 4.79541 7.69775 4.77155 7.71538L4.58715 7.85157L4.65632 8.07011C4.6653 8.09838 4.63306 8.12184 4.6089 8.10454L4.42239 7.97125L4.23591 8.10454C4.21175 8.1218 4.17958 8.09838 4.18849 8.07011L4.25766 7.85157L4.07326 7.71538C4.0494 7.69771 4.06168 7.6599 4.09137 7.65964L4.3206 7.6579L4.39311 7.44044C4.4025 7.41227 4.44231 7.41227 4.4517 7.44044Z" fill="#F5F5F5"/>
<path d="M4.4517 8.57791L4.52421 8.79538L4.75344 8.79712C4.78313 8.79738 4.79541 8.83523 4.77155 8.85286L4.58715 8.98905L4.65632 9.20759C4.6653 9.23586 4.63306 9.25932 4.6089 9.24202L4.42239 9.10873L4.23591 9.24202C4.21175 9.25928 4.17958 9.23586 4.18849 9.20759L4.25766 8.98905L4.07326 8.85286C4.0494 8.83519 4.06168 8.79738 4.09137 8.79712L4.3206 8.79538L4.39311 8.57791C4.4025 8.54971 4.44231 8.54971 4.4517 8.57791Z" fill="#F5F5F5"/>
<path d="M5.33463 4.58543L5.40714 4.80289L5.63637 4.80463C5.66605 4.80489 5.67834 4.84274 5.65448 4.86037L5.47008 4.99656L5.53925 5.2151C5.54823 5.24338 5.51598 5.26683 5.49183 5.24954L5.30535 5.11624L5.11888 5.24954C5.09472 5.26679 5.06255 5.24338 5.07145 5.2151L5.14062 4.99656L4.95623 4.86037C4.93237 4.84271 4.94465 4.80489 4.97434 4.80463L5.20356 4.80289L5.27607 4.58543C5.28546 4.5573 5.32524 4.5573 5.33463 4.58543Z" fill="#F5F5F5"/>
<path d="M5.33463 5.72303L5.40714 5.94049L5.63637 5.94223C5.66605 5.94249 5.67834 5.98034 5.65448 5.99797L5.47008 6.13416L5.53925 6.3527C5.54823 6.38098 5.51598 6.40443 5.49183 6.38714L5.30535 6.25384L5.11888 6.38714C5.09472 6.40439 5.06255 6.38101 5.07145 6.3527L5.14062 6.13416L4.95623 5.99797C4.93237 5.98031 4.94465 5.94249 4.97434 5.94223L5.20356 5.94049L5.27607 5.72303C5.28546 5.69486 5.32524 5.69486 5.33463 5.72303Z" fill="#F5F5F5"/>
<path d="M5.33463 6.8606L5.40714 7.07806L5.63637 7.07981C5.66605 7.08007 5.67834 7.11792 5.65448 7.13554L5.47008 7.27174L5.53925 7.49027C5.54823 7.51855 5.51598 7.542 5.49183 7.52471L5.30535 7.39141L5.11888 7.52471C5.09472 7.54197 5.06255 7.51855 5.07145 7.49027L5.14062 7.27174L4.95623 7.13554C4.93237 7.11788 4.94465 7.08007 4.97434 7.07981L5.20356 7.07806L5.27607 6.8606C5.28546 6.83244 5.32524 6.83244 5.33463 6.8606Z" fill="#F5F5F5"/>
<path d="M5.33463 7.99815L5.40714 8.21561L5.63637 8.21735C5.66605 8.21761 5.67834 8.25546 5.65448 8.27309L5.47008 8.40928L5.53925 8.62782C5.54823 8.6561 5.51598 8.67955 5.49183 8.66226L5.30535 8.52896L5.11888 8.66226C5.09472 8.67951 5.06255 8.6561 5.07145 8.62782L5.14062 8.40928L4.95623 8.27309C4.93237 8.25543 4.94465 8.21761 4.97434 8.21735L5.20356 8.21561L5.27607 7.99815C5.28546 7.97002 5.32524 7.97002 5.33463 7.99815Z" fill="#F5F5F5"/>
<path d="M6.21763 4.02772L6.29014 4.24518L6.51936 4.24692C6.54905 4.24718 6.56133 4.28503 6.53747 4.30266L6.35308 4.43885L6.42225 4.65739C6.43123 4.68566 6.39898 4.70912 6.37482 4.69182L6.18835 4.55853L6.00187 4.69182C5.97771 4.70908 5.94554 4.68566 5.95445 4.65739L6.02362 4.43885L5.83922 4.30266C5.81536 4.28499 5.82764 4.24718 5.85733 4.24692L6.08656 4.24518L6.15907 4.02772C6.16838 3.99955 6.20824 3.99955 6.21763 4.02772Z" fill="#F5F5F5"/>
<path d="M6.21763 5.16526L6.29014 5.38272L6.51936 5.38447C6.54905 5.38473 6.56133 5.42258 6.53747 5.4402L6.35308 5.5764L6.42225 5.79493C6.43123 5.82321 6.39898 5.84666 6.37482 5.82937L6.18835 5.69607L6.00187 5.82937C5.97771 5.84663 5.94554 5.82321 5.95445 5.79493L6.02362 5.5764L5.83922 5.4402C5.81536 5.42254 5.82764 5.38473 5.85733 5.38447L6.08656 5.38272L6.15907 5.16526C6.16838 5.13713 6.20824 5.13713 6.21763 5.16526Z" fill="#F5F5F5"/>
<path d="M6.21763 6.30283L6.29014 6.5203L6.51936 6.52204C6.54905 6.5223 6.56133 6.56015 6.53747 6.57778L6.35308 6.71397L6.42225 6.93251C6.43123 6.96078 6.39898 6.98424 6.37482 6.96694L6.18835 6.83365L6.00187 6.96694C5.97771 6.9842 5.94554 6.96078 5.95445 6.93251L6.02362 6.71397L5.83922 6.57778C5.81536 6.56011 5.82764 6.5223 5.85733 6.52204L6.08656 6.5203L6.15907 6.30283C6.16838 6.27471 6.20824 6.27471 6.21763 6.30283Z" fill="#F5F5F5"/>
<path d="M6.21763 7.44044L6.29014 7.6579L6.51936 7.65964C6.54905 7.6599 6.56133 7.69775 6.53747 7.71538L6.35308 7.85157L6.42225 8.07011C6.43123 8.09838 6.39898 8.12184 6.37482 8.10454L6.18835 7.97125L6.00187 8.10454C5.97771 8.1218 5.94554 8.09838 5.95445 8.07011L6.02362 7.85157L5.83922 7.71538C5.81536 7.69771 5.82764 7.6599 5.85733 7.65964L6.08656 7.6579L6.15907 7.44044C6.16838 7.41227 6.20824 7.41227 6.21763 7.44044Z" fill="#F5F5F5"/>
<path d="M6.21763 8.57791L6.29014 8.79538L6.51936 8.79712C6.54905 8.79738 6.56133 8.83523 6.53747 8.85286L6.35308 8.98905L6.42225 9.20759C6.43123 9.23586 6.39898 9.25932 6.37482 9.24202L6.18835 9.10873L6.00187 9.24202C5.97771 9.25928 5.94554 9.23586 5.95445 9.20759L6.02362 8.98905L5.83922 8.85286C5.81536 8.83519 5.82764 8.79738 5.85733 8.79712L6.08656 8.79538L6.15907 8.57791C6.16838 8.54971 6.20824 8.54971 6.21763 8.57791Z" fill="#F5F5F5"/>
<path d="M7.10056 4.58543L7.17307 4.80289L7.4023 4.80463C7.43198 4.80489 7.44427 4.84274 7.42041 4.86037L7.23601 4.99656L7.30518 5.2151C7.31416 5.24338 7.28191 5.26683 7.25776 5.24954L7.07128 5.11624L6.88481 5.24954C6.86065 5.26679 6.82848 5.24338 6.83738 5.2151L6.90655 4.99656L6.72216 4.86037C6.6983 4.84271 6.71058 4.80489 6.74027 4.80463L6.96949 4.80289L7.042 4.58543C7.05135 4.5573 7.09121 4.5573 7.10056 4.58543Z" fill="#F5F5F5"/>
<path d="M7.10056 5.72303L7.17307 5.94049L7.4023 5.94223C7.43198 5.94249 7.44427 5.98034 7.42041 5.99797L7.23601 6.13416L7.30518 6.3527C7.31416 6.38098 7.28191 6.40443 7.25776 6.38714L7.07128 6.25384L6.88481 6.38714C6.86065 6.40439 6.82848 6.38101 6.83738 6.3527L6.90655 6.13416L6.72216 5.99797C6.6983 5.98031 6.71058 5.94249 6.74027 5.94223L6.96949 5.94049L7.042 5.72303C7.05135 5.69486 7.09121 5.69486 7.10056 5.72303Z" fill="#F5F5F5"/>
<path d="M7.10056 6.8606L7.17307 7.07806L7.4023 7.07981C7.43198 7.08007 7.44427 7.11792 7.42041 7.13554L7.23601 7.27174L7.30518 7.49027C7.31416 7.51855 7.28191 7.542 7.25776 7.52471L7.07128 7.39141L6.88481 7.52471C6.86065 7.54197 6.82848 7.51855 6.83738 7.49027L6.90655 7.27174L6.72216 7.13554C6.6983 7.11788 6.71058 7.08007 6.74027 7.07981L6.96949 7.07806L7.042 6.8606C7.05135 6.83244 7.09121 6.83244 7.10056 6.8606Z" fill="#F5F5F5"/>
<path d="M7.10056 7.99815L7.17307 8.21561L7.4023 8.21735C7.43198 8.21761 7.44427 8.25546 7.42041 8.27309L7.23601 8.40928L7.30518 8.62782C7.31416 8.6561 7.28191 8.67955 7.25776 8.66226L7.07128 8.52896L6.88481 8.66226C6.86065 8.67951 6.82848 8.6561 6.83738 8.62782L6.90655 8.40928L6.72216 8.27309C6.6983 8.25543 6.71058 8.21761 6.74027 8.21735L6.96949 8.21561L7.042 7.99815C7.05135 7.97002 7.09121 7.97002 7.10056 7.99815Z" fill="#F5F5F5"/>
<path d="M7.98356 4.02772L8.05607 4.24518L8.28529 4.24692C8.31498 4.24718 8.32726 4.28503 8.3034 4.30266L8.11901 4.43885L8.18818 4.65739C8.19716 4.68566 8.16491 4.70912 8.14075 4.69182L7.95428 4.55853L7.7678 4.69182C7.74365 4.70908 7.71147 4.68566 7.72038 4.65739L7.78955 4.43885L7.60515 4.30266C7.58129 4.28499 7.59358 4.24718 7.62326 4.24692L7.85249 4.24518L7.925 4.02772C7.93435 3.99955 7.97413 3.99955 7.98356 4.02772Z" fill="#F5F5F5"/>
<path d="M7.98356 5.16526L8.05607 5.38272L8.28529 5.38447C8.31498 5.38473 8.32726 5.42258 8.3034 5.4402L8.11901 5.5764L8.18818 5.79493C8.19716 5.82321 8.16491 5.84666 8.14075 5.82937L7.95428 5.69607L7.7678 5.82937C7.74365 5.84663 7.71147 5.82321 7.72038 5.79493L7.78955 5.5764L7.60515 5.4402C7.58129 5.42254 7.59358 5.38473 7.62326 5.38447L7.85249 5.38272L7.925 5.16526C7.93435 5.13713 7.97413 5.13713 7.98356 5.16526Z" fill="#F5F5F5"/>
<path d="M7.98356 6.30283L8.05607 6.5203L8.28529 6.52204C8.31498 6.5223 8.32726 6.56015 8.3034 6.57778L8.11901 6.71397L8.18818 6.93251C8.19716 6.96078 8.16491 6.98424 8.14075 6.96694L7.95428 6.83365L7.7678 6.96694C7.74365 6.9842 7.71147 6.96078 7.72038 6.93251L7.78955 6.71397L7.60515 6.57778C7.58129 6.56011 7.59358 6.5223 7.62326 6.52204L7.85249 6.5203L7.925 6.30283C7.93435 6.27471 7.97413 6.27471 7.98356 6.30283Z" fill="#F5F5F5"/>
<path d="M7.98356 7.44044L8.05607 7.6579L8.28529 7.65964C8.31498 7.6599 8.32726 7.69775 8.3034 7.71538L8.11901 7.85157L8.18818 8.07011C8.19716 8.09838 8.16491 8.12184 8.14075 8.10454L7.95428 7.97125L7.7678 8.10454C7.74365 8.1218 7.71147 8.09838 7.72038 8.07011L7.78955 7.85157L7.60515 7.71538C7.58129 7.69771 7.59358 7.6599 7.62326 7.65964L7.85249 7.6579L7.925 7.44044C7.93435 7.41227 7.97413 7.41227 7.98356 7.44044Z" fill="#F5F5F5"/>
<path d="M7.98356 8.57791L8.05607 8.79538L8.28529 8.79712C8.31498 8.79738 8.32726 8.83523 8.3034 8.85286L8.11901 8.98905L8.18818 9.20759C8.19716 9.23586 8.16491 9.25932 8.14075 9.24202L7.95428 9.10873L7.7678 9.24202C7.74365 9.25928 7.71147 9.23586 7.72038 9.20759L7.78955 8.98905L7.60515 8.85286C7.58129 8.83519 7.59358 8.79738 7.62326 8.79712L7.85249 8.79538L7.925 8.57791C7.93435 8.54971 7.97413 8.54971 7.98356 8.57791Z" fill="#F5F5F5"/>
</svg>
